<svg width="24" height="24" viewBox="0 0 24 24" fill="none" xmlns="http://www.w3.org/2000/svg">
<path d="M22.46 6.00049C21.69 6.35049 20.86 6.58049 20 6.69049C20.88 6.16049 21.56 5.32049 21.88 4.31049C21.05 4.81049 20.13 5.16049 19.16 5.36049C18.37 4.50049 17.26 4.00049 16 4.00049C13.65 4.00049 11.73 5.92049 11.73 8.29049C11.73 8.63049 11.77 8.96049 11.84 9.27049C8.28004 9.09049 5.11004 7.38049 3.00004 4.79049C2.63004 5.42049 2.42004 6.16049 2.42004 6.94049C2.42004 8.43049 3.17004 9.75049 4.33004 10.5005C3.62004 10.5005 2.96004 10.3005 2.38004 10.0005C2.38004 10.0005 2.38004 10.0005 2.38004 10.0305C2.38004 12.1105 3.86004 13.8505 5.82004 14.2405C5.46004 14.3405 5.08004 14.3905 4.69004 14.3905C4.42004 14.3905 4.15004 14.3605 3.89004 14.3105C4.43004 16.0005 6.00004 17.2605 7.89004 17.2905C6.43004 18.4505 4.58004 19.1305 2.56004 19.1305C2.22004 19.1305 1.88004 19.1105 1.54004 19.0705C3.44004 20.2905 5.70004 21.0005 8.12004 21.0005C16 21.0005 20.33 14.4605 20.33 8.79049C20.33 8.60049 20.33 8.42049 20.32 8.23049C21.16 7.63049 21.88 6.87049 22.46 6.00049Z" fill="#00ACEE"/>
</svg>
