<svg width="210" height="58" viewBox="0 0 210 58" fill="none" xmlns="http://www.w3.org/2000/svg">
<ellipse cx="25.085" cy="24.977" rx="24.9771" ry="25" transform="rotate(-90 25.085 24.977)" fill="#FF9534"/>
<mask id="mask0_459_933" style="mask-type:alpha" maskUnits="userSpaceOnUse" x="0" y="0" width="50" height="51">
<ellipse cx="25" cy="25.0302" rx="24.9771" ry="25" transform="rotate(-90 25 25.0302)" fill="#C4C4C4"/>
</mask>
<g mask="url(#mask0_459_933)">
<rect width="29.9863" height="1.99908" rx="0.999542" transform="matrix(-0.70743 -0.706783 0.70743 -0.706783 19.3652 51.8662)" fill="white"/>
<rect width="29.9863" height="1.99908" rx="0.999542" transform="matrix(0.70743 0.706783 -0.70743 0.706783 30.5693 -1.93359)" fill="white"/>
<rect width="39.9817" height="1.99908" rx="0.999542" transform="matrix(-0.70743 -0.706783 0.70743 -0.706783 25.7295 52.5728)" fill="white"/>
<rect width="39.9817" height="1.99908" rx="0.999542" transform="matrix(0.70743 0.706783 -0.70743 0.706783 24.2266 -2.61816)" fill="white"/>
<rect width="46.9785" height="1.99908" rx="0.999542" transform="matrix(-0.70743 -0.706783 0.70743 -0.706783 31.3857 52.5728)" fill="white"/>
<rect width="46.9785" height="1.99908" rx="0.999542" transform="matrix(0.70743 0.706783 -0.70743 0.706783 18.5898 -2.59375)" fill="white"/>
<rect width="53.9753" height="1.99908" rx="0.999542" transform="matrix(-0.70743 -0.706783 0.70743 -0.706783 37.043 52.5728)" fill="white"/>
<rect width="53.9753" height="1.99908" rx="0.999542" transform="matrix(0.70743 0.706783 -0.70743 0.706783 12.9521 -2.56909)" fill="white"/>
<rect width="53.9753" height="1.99908" rx="0.999542" transform="matrix(-0.70743 -0.706783 0.70743 -0.706783 39.8711 49.7468)" fill="white"/>
<rect width="53.9753" height="1.99908" rx="0.999542" transform="matrix(0.70743 0.706783 -0.70743 0.706783 10.1455 0.27832)" fill="white"/>
<rect width="53.9753" height="1.99908" rx="0.999542" transform="matrix(-0.70743 -0.706783 0.70743 -0.706783 41.9922 46.2146)" fill="white"/>
<rect width="53.9753" height="1.99908" rx="0.999542" transform="matrix(0.70743 0.706783 -0.70743 0.706783 8.05176 3.82715)" fill="white"/>
</g>
<path d="M50.84 31.641C50.46 30.941 49.91 30.411 49.19 30.051C48.49 29.671 47.66 29.481 46.7 29.481C45.04 29.481 43.71 30.031 42.71 31.131C41.71 32.211 41.21 33.661 41.21 35.481C41.21 37.421 41.73 38.941 42.77 40.041C43.83 41.121 45.28 41.661 47.12 41.661C48.38 41.661 49.44 41.341 50.3 40.701C51.18 40.061 51.82 39.141 52.22 37.941H45.71V34.161H56.87V38.931C56.49 40.211 55.84 41.401 54.92 42.501C54.02 43.601 52.87 44.491 51.47 45.171C50.07 45.851 48.49 46.191 46.73 46.191C44.65 46.191 42.79 45.741 41.15 44.841C39.53 43.921 38.26 42.651 37.34 41.031C36.44 39.411 35.99 37.561 35.99 35.481C35.99 33.401 36.44 31.551 37.34 29.931C38.26 28.291 39.53 27.021 41.15 26.121C42.77 25.201 44.62 24.741 46.7 24.741C49.22 24.741 51.34 25.351 53.06 26.571C54.8 27.791 55.95 29.481 56.51 31.641H50.84ZM58.6916 37.641C58.6916 35.921 59.0116 34.411 59.6516 33.111C60.3116 31.811 61.2016 30.811 62.3216 30.111C63.4416 29.411 64.6916 29.061 66.0716 29.061C67.2516 29.061 68.2816 29.301 69.1616 29.781C70.0616 30.261 70.7516 30.891 71.2316 31.671V29.301H76.3616V46.041H71.2316V43.671C70.7316 44.451 70.0316 45.081 69.1316 45.561C68.2516 46.041 67.2216 46.281 66.0416 46.281C64.6816 46.281 63.4416 45.931 62.3216 45.231C61.2016 44.511 60.3116 43.501 59.6516 42.201C59.0116 40.881 58.6916 39.361 58.6916 37.641ZM71.2316 37.671C71.2316 36.391 70.8716 35.381 70.1516 34.641C69.4516 33.901 68.5916 33.531 67.5716 33.531C66.5516 33.531 65.6816 33.901 64.9616 34.641C64.2616 35.361 63.9116 36.361 63.9116 37.641C63.9116 38.921 64.2616 39.941 64.9616 40.701C65.6816 41.441 66.5516 41.811 67.5716 41.811C68.5916 41.811 69.4516 41.441 70.1516 40.701C70.8716 39.961 71.2316 38.951 71.2316 37.671ZM85.2029 23.841V46.041H80.0729V23.841H85.2029ZM94.0505 23.841V46.041H88.9205V23.841H94.0505ZM113.548 37.401C113.548 37.881 113.518 38.381 113.458 38.901H101.848C101.928 39.941 102.258 40.741 102.838 41.301C103.438 41.841 104.168 42.111 105.028 42.111C106.308 42.111 107.198 41.571 107.698 40.491H113.158C112.878 41.591 112.368 42.581 111.628 43.461C110.908 44.341 109.998 45.031 108.898 45.531C107.798 46.031 106.568 46.281 105.208 46.281C103.568 46.281 102.108 45.931 100.828 45.231C99.5482 44.531 98.5482 43.531 97.8282 42.231C97.1082 40.931 96.7482 39.411 96.7482 37.671C96.7482 35.931 97.0982 34.411 97.7982 33.111C98.5182 31.811 99.5182 30.811 100.798 30.111C102.078 29.411 103.548 29.061 105.208 29.061C106.828 29.061 108.268 29.401 109.528 30.081C110.788 30.761 111.768 31.731 112.468 32.991C113.188 34.251 113.548 35.721 113.548 37.401ZM108.298 36.051C108.298 35.171 107.998 34.471 107.398 33.951C106.798 33.431 106.048 33.171 105.148 33.171C104.288 33.171 103.558 33.421 102.958 33.921C102.378 34.421 102.018 35.131 101.878 36.051H108.298ZM121.385 32.091C121.985 31.171 122.735 30.451 123.635 29.931C124.535 29.391 125.535 29.121 126.635 29.121V34.551H125.225C123.945 34.551 122.985 34.831 122.345 35.391C121.705 35.931 121.385 36.891 121.385 38.271V46.041H116.255V29.301H121.385V32.091ZM146.187 29.301L135.687 53.991H130.167L134.007 45.471L127.197 29.301H132.927L136.797 39.771L140.637 29.301H146.187Z" fill="#FF9534"/>
</svg>
